<svg width="68" height="68" viewBox="0 0 68 68" fill="none" xmlns="http://www.w3.org/2000/svg">
<path d="M34 68C43.0176 68 51.6652 64.4177 58.0416 58.0416C64.4177 51.6655 68 43.0168 68 34C68 24.9832 64.4177 16.3348 58.0416 9.9584C51.6655 3.58229 43.0168 0 34 0C24.9832 0 16.3348 3.58229 9.9584 9.9584C3.58229 16.3345 0 24.9832 0 34C0.0100137 43.0144 3.59538 51.6558 9.96946 58.0308C16.3439 64.4047 24.9862 67.9901 34.0003 68.0003L34 68ZM34 2.71974C42.296 2.71974 50.2526 6.01533 56.119 11.8817C61.9853 17.7481 65.2809 25.7044 65.2809 34.0007C65.2809 42.297 61.9853 50.2533 56.119 56.1196C50.2526 61.986 42.2963 65.2816 34 65.2816C25.7037 65.2816 17.7474 61.986 11.881 56.1196C6.01465 50.2533 2.71907 42.297 2.71907 34.0007C2.72855 25.7072 6.02733 17.7575 11.8915 11.8925C17.7558 6.02747 25.7061 2.72945 33.9997 2.72001L34 2.71974ZM17.3494 48.7279L32.0774 33.9999L17.3494 19.2719C16.8181 18.7406 16.8181 17.8795 17.3488 17.3482C17.8801 16.8174 18.7412 16.8169 19.2726 17.3482L34.0005 32.0762L48.7285 17.3482C49.2598 16.8169 50.1209 16.8174 50.6522 17.3482C51.183 17.8794 51.183 18.7405 50.6517 19.2719L35.9237 33.9999L50.6517 48.7279C51.183 49.2591 51.183 50.1202 50.6522 50.6516C50.121 51.1823 49.2599 51.1828 48.7285 50.6516L34.0005 35.9236L19.2726 50.6516C18.7413 51.1828 17.8802 51.1823 17.3488 50.6516C16.8181 50.1203 16.8181 49.2592 17.3494 48.7279V48.7279Z" fill="#FF3B30"/>
</svg>
