<svg width="329" height="449" viewBox="0 0 329 449" fill="none" xmlns="http://www.w3.org/2000/svg">
<path d="M96.762 48.383C96.762 75.102 75.102 96.762 48.383 96.762C21.66 96.762 0 75.102 0 48.383C0 21.66 21.66 0 48.383 0C75.102 0 96.762 21.66 96.762 48.383Z" fill="#503FC1"/>
<path d="M96.762 165.463C96.762 192.182 75.102 213.846 48.383 213.846C21.66 213.846 0 192.182 0 165.463C0 138.74 21.66 117.08 48.383 117.08C75.102 117.08 96.762 138.74 96.762 165.463Z" fill="#503FC1"/>
<path d="M96.762 282.543C96.762 309.266 75.102 330.926 48.383 330.926C21.66 330.926 0 309.266 0 282.543C0 255.824 21.66 234.16 48.383 234.16C75.102 234.16 96.762 255.824 96.762 282.543Z" fill="#503FC1"/>
<path d="M96.762 399.623C96.762 426.346 75.102 448.006 48.383 448.006C21.66 448.006 0 426.346 0 399.623C0 372.904 21.66 351.244 48.383 351.244C75.102 351.244 96.762 372.904 96.762 399.623Z" fill="#503FC1"/>
<path d="M212.592 48.383C212.592 75.102 190.928 96.762 164.209 96.762C137.49 96.762 115.826 75.102 115.826 48.383C115.826 21.66 137.49 0 164.209 0C190.928 0 212.592 21.66 212.592 48.383Z" fill="#503FC1"/>
<path d="M212.592 165.463C212.592 192.182 190.928 213.846 164.209 213.846C137.49 213.846 115.826 192.182 115.826 165.463C115.826 138.74 137.49 117.08 164.209 117.08C190.928 117.08 212.592 138.74 212.592 165.463Z" fill="#503FC1"/>
<path d="M212.592 282.543C212.592 309.266 190.928 330.926 164.209 330.926C137.49 330.926 115.826 309.266 115.826 282.543C115.826 255.824 137.49 234.16 164.209 234.16C190.928 234.16 212.592 255.824 212.592 282.543Z" fill="#503FC1"/>
<path d="M328.422 48.383C328.422 75.102 306.762 96.762 280.039 96.762C253.32 96.762 231.66 75.102 231.66 48.383C231.66 21.66 253.32 0 280.039 0C306.762 0 328.422 21.66 328.422 48.383Z" fill="#503FC1"/>
<path d="M328.422 165.463C328.422 192.182 306.762 213.846 280.039 213.846C253.32 213.846 231.66 192.182 231.66 165.463C231.66 138.74 253.32 117.08 280.039 117.08C306.762 117.08 328.422 138.74 328.422 165.463Z" fill="#503FC1"/>
<path d="M328.422 282.543C328.422 309.266 306.762 330.926 280.039 330.926C253.32 330.926 231.66 309.266 231.66 282.543C231.66 255.824 253.32 234.16 280.039 234.16C306.762 234.16 328.422 255.824 328.422 282.543Z" fill="#503FC1"/>
</svg>
